<?xml version="1.0" encoding="UTF-8" standalone="no"?>
<!DOCTYPE svg PUBLIC "-//W3C//DTD SVG 1.1//EN"
 "http://www.w3.org/Graphics/SVG/1.1/DTD/svg11.dtd">
<!-- Generated by graphviz version 2.40.1 (20161225.0304)
 -->
<!-- Title: UmlClassDiagram Pages: 1 -->
<svg width="643pt" height="321pt"
 viewBox="0.00 0.00 642.92 321.20" xmlns="http://www.w3.org/2000/svg" xmlns:xlink="http://www.w3.org/1999/xlink">
<g id="graph0" class="graph" transform="scale(1 1) rotate(0) translate(4 317.2)">
<title>UmlClassDiagram</title>
<polygon fill="#ffffff" stroke="transparent" points="-4,4 -4,-317.2 638.9204,-317.2 638.9204,4 -4,4"/>
<!-- 0 -->
<g id="node1" class="node">
<title>0</title>
<polygon fill="#f2f2f2" stroke="#000000" points="0,-154.3 0,-312.7 634.9204,-312.7 634.9204,-154.3 0,-154.3"/>
<text text-anchor="middle" x="317.4602" y="-296.1" font-family="Times,serif" font-size="14.00" fill="#000000">&lt;&lt;Library&gt;&gt;</text>
<text text-anchor="middle" x="317.4602" y="-279.3" font-family="Times,serif" font-size="14.00" fill="#000000">DEX</text>
<polyline fill="none" stroke="#000000" points="0,-271.1 634.9204,-271.1 "/>
<text text-anchor="middle" x="317.4602" y="-254.5" font-family="Times,serif" font-size="14.00" fill="#000000"> </text>
<polyline fill="none" stroke="#000000" points="0,-246.3 634.9204,-246.3 "/>
<text text-anchor="start" x="8" y="-229.7" font-family="Times,serif" font-size="14.00" fill="#000000">Public:</text>
<text text-anchor="start" x="8" y="-212.9" font-family="Times,serif" font-size="14.00" fill="#000000"> &#160;&#160;&#160;removeOrder(self: Data, _id: uint256)</text>
<text text-anchor="start" x="8" y="-196.1" font-family="Times,serif" font-size="14.00" fill="#000000"> &#160;&#160;&#160;addOrder(self: Data, _AUTO: uint256, _value: uint256, _sender: address, _orderType: OrderType): uint256</text>
<text text-anchor="start" x="8" y="-179.3" font-family="Times,serif" font-size="14.00" fill="#000000"> &#160;&#160;&#160;sellNow(self: Data, _id: uint256, _AUTO: uint256, _ETH: uint256)</text>
<text text-anchor="start" x="8" y="-162.5" font-family="Times,serif" font-size="14.00" fill="#000000"> &#160;&#160;&#160;buyNow(self: Data, _id: uint256, _AUTO: uint256, _value: uint256)</text>
</g>
<!-- 0struct0 -->
<g id="node2" class="node">
<title>0struct0</title>
<polygon fill="#f2f2f2" stroke="#000000" points="29.9086,-.5 29.9086,-117.3 173.0118,-117.3 173.0118,-.5 29.9086,-.5"/>
<text text-anchor="middle" x="101.4602" y="-100.7" font-family="Times,serif" font-size="14.00" fill="#000000">&lt;&lt;struct&gt;&gt;</text>
<text text-anchor="middle" x="101.4602" y="-83.9" font-family="Times,serif" font-size="14.00" fill="#000000">Order</text>
<polyline fill="none" stroke="#000000" points="29.9086,-75.7 173.0118,-75.7 "/>
<text text-anchor="start" x="37.9086" y="-59.1" font-family="Times,serif" font-size="14.00" fill="#000000">AUTO: uint256</text>
<text text-anchor="start" x="37.9086" y="-42.3" font-family="Times,serif" font-size="14.00" fill="#000000">ETH: uint256</text>
<text text-anchor="start" x="37.9086" y="-25.5" font-family="Times,serif" font-size="14.00" fill="#000000">owner: address</text>
<text text-anchor="start" x="37.9086" y="-8.7" font-family="Times,serif" font-size="14.00" fill="#000000">orderType: OrderType</text>
</g>
<!-- 0struct0&#45;&gt;0 -->
<g id="edge1" class="edge">
<title>0struct0&#45;&gt;0</title>
<path fill="none" stroke="#000000" d="M173.085,-116.7968C184.926,-126.3682 197.4275,-136.4736 209.9208,-146.5723"/>
<polygon fill="#000000" stroke="#000000" points="210.1294,-146.7409 217.3102,-147.402 219.4618,-154.2846 212.2811,-153.6236 210.1294,-146.7409"/>
</g>
<!-- 0struct1 -->
<g id="node3" class="node">
<title>0struct1</title>
<polygon fill="#f2f2f2" stroke="#000000" points="191.3513,-8.9 191.3513,-108.9 443.5691,-108.9 443.5691,-8.9 191.3513,-8.9"/>
<text text-anchor="middle" x="317.4602" y="-92.3" font-family="Times,serif" font-size="14.00" fill="#000000">&lt;&lt;struct&gt;&gt;</text>
<text text-anchor="middle" x="317.4602" y="-75.5" font-family="Times,serif" font-size="14.00" fill="#000000">Data</text>
<polyline fill="none" stroke="#000000" points="191.3513,-67.3 443.5691,-67.3 "/>
<text text-anchor="start" x="199.3513" y="-50.7" font-family="Times,serif" font-size="14.00" fill="#000000">orders: mapping(uint256=&gt;Order)</text>
<text text-anchor="start" x="199.3513" y="-33.9" font-family="Times,serif" font-size="14.00" fill="#000000">balanceETH: mapping(address=&gt;uint256)</text>
<text text-anchor="start" x="199.3513" y="-17.1" font-family="Times,serif" font-size="14.00" fill="#000000">ids: uint256</text>
</g>
<!-- 0struct1&#45;&gt;0 -->
<g id="edge2" class="edge">
<title>0struct1&#45;&gt;0</title>
<path fill="none" stroke="#000000" d="M317.4602,-108.9334C317.4602,-119.2937 317.4602,-130.5161 317.4602,-141.8366"/>
<polygon fill="#000000" stroke="#000000" points="317.4603,-142.1229 321.4602,-148.1229 317.4602,-154.1229 313.4602,-148.1229 317.4603,-142.1229"/>
</g>
<!-- 0enum0 -->
<g id="node4" class="node">
<title>0enum0</title>
<polygon fill="#f2f2f2" stroke="#000000" points="461.1184,-.5 461.1184,-117.3 539.802,-117.3 539.802,-.5 461.1184,-.5"/>
<text text-anchor="middle" x="500.4602" y="-100.7" font-family="Times,serif" font-size="14.00" fill="#000000">&lt;&lt;enum&gt;&gt;</text>
<text text-anchor="middle" x="500.4602" y="-83.9" font-family="Times,serif" font-size="14.00" fill="#000000">OrderType</text>
<polyline fill="none" stroke="#000000" points="461.1184,-75.7 539.802,-75.7 "/>
<text text-anchor="start" x="469.1184" y="-59.1" font-family="Times,serif" font-size="14.00" fill="#000000">None</text>
<text text-anchor="start" x="469.1184" y="-42.3" font-family="Times,serif" font-size="14.00" fill="#000000">Buy</text>
<text text-anchor="start" x="469.1184" y="-25.5" font-family="Times,serif" font-size="14.00" fill="#000000">Sell</text>
<text text-anchor="start" x="469.1184" y="-8.7" font-family="Times,serif" font-size="14.00" fill="#000000">Auction</text>
</g>
<!-- 0enum0&#45;&gt;0 -->
<g id="edge3" class="edge">
<title>0enum0&#45;&gt;0</title>
<path fill="none" stroke="#000000" d="M461.0188,-108.6346C458.1835,-111.7909 455.3157,-114.8728 452.4602,-117.8 443.3838,-127.1042 433.6406,-136.478 423.6956,-145.6467"/>
<polygon fill="#000000" stroke="#000000" points="423.3924,-145.9228 421.6487,-152.9199 414.5191,-154.0015 416.2629,-147.0043 423.3924,-145.9228"/>
</g>
</g>
</svg>
